<svg width="73" height="73" viewBox="0 0 73 73" fill="none" xmlns="http://www.w3.org/2000/svg">
<circle cx="36.5" cy="36.5" r="36.5" fill="#E01E2E"/>
<path d="M53 46.7779V26.2223C53 21.7659 45.4451 18.0001 36.5 18.0001C27.5549 18.0001 20 21.7659 20 26.2223V46.7779C20 51.2343 27.5549 55.0001 36.5 55.0001C45.4451 55.0001 53 51.2343 53 46.7779ZM36.5 22.1112C44.1127 22.1112 48.7327 25.209 48.875 26.21C48.7327 27.2357 44.1127 30.3335 36.5 30.3335C28.8873 30.3335 24.2673 27.2357 24.125 26.2347C24.2673 25.209 28.8873 22.1112 36.5 22.1112ZM24.125 31.5812C27.1754 33.3222 31.6263 34.4446 36.5 34.4446C41.3737 34.4446 45.8246 33.3222 48.875 31.5812V36.4878C48.7327 37.5135 44.1127 40.6112 36.5 40.6112C28.8873 40.6112 24.2673 37.5135 24.125 36.5001V31.5812ZM24.125 46.7779V41.859C27.1754 43.6 31.6263 44.7223 36.5 44.7223C41.3737 44.7223 45.8246 43.6 48.875 41.859V46.7656C48.7327 47.7913 44.1127 50.889 36.5 50.889C28.8873 50.889 24.2673 47.7913 24.125 46.7779Z" fill="white"/>
</svg>
